# xmcd
#
# Track frame offsets: 
#        150
#        15209
#        32593
#        49425
#        61848
#        86811
#        115334
#        128450
#        140703
#        160795
#        174547
#        195725
#        215974
#        233517
#        252787
#
# Disc length: 3571 seconds
#
# Revision: 0
# Processed by: cddbd v1.5.2PL0 Copyright (c) Steve Scherf et al.
# Submitted via: ExactAudioCopy v1.0b3
#
DISCID=ca0df10f
DTITLE=Various Artist - Шансон с человеческим лицом Ш3
DYEAR=2003
DGENRE=Cabaret
TTITLE0=Хоронько-Оркестр - Враньё
TTITLE1=Карл Хламкин - Воскресенье
TTITLE2=Паперный Т.А.М... - Тебе интересно?
TTITLE3=Архип Ахмелеев - Жопа на заборе
TTITLE4=Снегопады - Но мы все равно убежим
TTITLE5=Александр Синицын - Звёзды, звёзды
TTITLE6=Парни - Женя
TTITLE7=Александр Ливер - Серенада пассажира
TTITLE8=Андрей Бильжо и Последний шанс - Третьяковка
TTITLE9=Яуза - Снежинки
TTITLE10=Гуджа Бурдули - Зараза
TTITLE11=Billy's Band - 200 кубиков Агдама
TTITLE12=Лайда - Бульвар Распай
TTITLE13=Выход - Такими собой
TTITLE14=Ульи - Литература
EXTD=
EXTT0=
EXTT1=
EXTT2=
EXTT3=
EXTT4=
EXTT5=
EXTT6=
EXTT7=
EXTT8=
EXTT9=
EXTT10=
EXTT11=
EXTT12=
EXTT13=
EXTT14=
PLAYORDER=
